{"title":"Michael Haneke - 71 Fragmente einer Chronologie des Zufalls (199","uid":5693043,"size":1381103198,"categoryP":"other","categoryS":"other","magnet":"?xt=urn:btih:fc32d3ce4595cc32d80f9fa8ef348b9e927499a8&amp;dn=Michael+Haneke+-+71+Fragmente+einer+Chronologie+des+Zufalls+%28199&amp;tr=udp%3A%2F%2Ftracker.openbittorrent.com%3A80&amp;tr=udp%3A%2F%2Fopen.demonii.com%3A1337&amp;tr=udp%3A%2F%2Ftracker.coppersurfer.tk%3A6969&amp;tr=udp%3A%2F%2Fexodus.desync.com%3A6969","seeders":1,"leechers":1,"uploader":"mfccorrea","files":6,"time":1279156498,"description":"This cerebral Austrian mystery, by avant-garde director Michael Haneke, will disturb those viewers with the \n\npatience to wade through it. The film begins with a grisly mass killing. It was Christmas eve 1993 and a 19-year old \n\nstudent inexplicably murders several people and then kills himself. The fragmented film flashes back to October 12 \n\nand then progresses toward the fateful night. Throughout the film many characters appear and suddenly \n\nreappear. A homeless teenaged Romanian exile roaming Vienna's streets and begging provides continuity. Each \n\nfragment begins with a newscast that functions as a surreal Greek Chorus One shows footage of the war in \n\nSarajevo, and the other is a story about Michael Jackson. \n\n   General\n      Complete name : 71 Fragmente einer Chronologie des Zufalls.avi\n      Format : AVI\n      Format/Info : Audio Video Interleave\n      File size : 1.29 GiB\n      Duration : 1h 35mn\n      Overall bit rate : 1 937 Kbps\n      Writing application : FairUse Wizard - http://fairusewizard.com\n      Writing library : The best and REALLY easy backup tool\n   Video #0\n      ID : 0\n      Format : MPEG-4 Visual\n      Format profile : AdvancedSimple@L5\n      Format settings, BVOP : Yes\n      Format settings, QPel : No\n      Format settings, GMC : No warppoints\n      Format settings, Matrix : Default (MPEG)\n      Muxing mode : Packed bitstream\n      Codec ID : XVID\n      Codec ID/Hint : XviD\n      Duration : 1h 35mn\n      Bit rate : 1 736 Kbps\n      Width : 688 pixels\n      Height : 384 pixels\n      Display aspect ratio : 16:9\n      Frame rate : 25.000 fps\n      Resolution : 24 bits\n      Colorimetry : 4:2:0\n      Scan type : Progressive\n      Bits/(Pixel*Frame) : 0.263\n      Stream size : 1.15 GiB (90%)\n      Writing library : XviD 1.2.0.dev47 (UTC 2006-11-01)\n   Audio #1\n      ID : 1\n      Format : AC-3\n      Format/Info : Audio Coding 3\n      Codec ID : 2000\n      Duration : 1h 35mn\n      Bit rate mode : Constant\n      Bit rate : 192 Kbps\n      Channel(s) : 2 channels\n      Channel positions : L R\n      Sampling rate : 48.0 KHz\n      Stream size : 131 MiB (10%)\n      Alignment : Split accross interleaves\n      Interleave, duration : 40 ms (1.00 video frame)\n      Interleave, preload duration : 500 ms\n &lt;a href=&quot;\nhttp://www.imdb.com/title/tt0109020/&quot; rel=&quot;nofollow&quot; target=&quot;_NEW&quot;&gt;\nhttp://www.imdb.com/title/tt0109020/&lt;/a&gt;\n\nGerman audio; English, French, Italian, Spanish and Portuguese subtitles\n\nMy rip\n\nMichael Haneke - 71 Fragmente einer Chronologie des Zufalls (1994)","torrent":{"xt":"urn:btih:fc32d3ce4595cc32d80f9fa8ef348b9e927499a8","amp;dn":"Michael+Haneke+-+71+Fragmente+einer+Chronologie+des+Zufalls+%28199","amp;tr":["udp%3A%2F%2Ftracker.openbittorrent.com%3A80","udp%3A%2F%2Fopen.demonii.com%3A1337","udp%3A%2F%2Ftracker.coppersurfer.tk%3A6969","udp%3A%2F%2Fexodus.desync.com%3A6969"],"infoHash":"fc32d3ce4595cc32d80f9fa8ef348b9e927499a8","infoHashBuffer":{"type":"Buffer","data":[252,50,211,206,69,149,204,50,216,15,159,168,239,52,139,158,146,116,153,168]},"announce":[],"urlList":[]}}